<svg width="29" height="30" viewBox="0 0 29 30" fill="none" xmlns="http://www.w3.org/2000/svg">
<g id="Iconly/Light-Outline/Plus">
<g id="Plus">
<path id="Combined-Shape" fill-rule="evenodd" clip-rule="evenodd" d="M20.8207 0.5C25.7129 0.5 29 3.93414 29 9.04488V20.9551C29 26.0659 25.7129 29.5 20.8207 29.5H8.17935C3.28712 29.5 0 26.0659 0 20.9551V9.04488C0 3.93414 3.28712 0.5 8.17935 0.5H20.8207ZM20.8207 2.52326H8.17935C4.44037 2.52326 2.02326 5.082 2.02326 9.04488V20.9551C2.02326 24.918 4.44037 27.4767 8.17935 27.4767H20.8207C24.561 27.4767 26.9767 24.918 26.9767 20.9551V9.04488C26.9767 5.082 24.561 2.52326 20.8207 2.52326ZM14.5 9.0345C15.0584 9.0345 15.5116 9.48771 15.5116 10.0461V13.9749L19.4455 13.9752C20.0039 13.9752 20.4571 14.4284 20.4571 14.9868C20.4571 15.5452 20.0039 15.9984 19.4455 15.9984L15.5116 15.9981V19.9291C15.5116 20.4875 15.0584 20.9407 14.5 20.9407C13.9416 20.9407 13.4884 20.4875 13.4884 19.9291V15.9981L9.55449 15.9984C8.99472 15.9984 8.54286 15.5452 8.54286 14.9868C8.54286 14.4284 8.99472 13.9752 9.55449 13.9752L13.4884 13.9749V10.0461C13.4884 9.48771 13.9416 9.0345 14.5 9.0345Z" fill="white"/>
</g>
</g>
</svg>
