<svg width="412" height="215" viewBox="0 0 412 215" fill="none" xmlns="http://www.w3.org/2000/svg">
<path d="M12.4471 214.26C13.1431 215.118 14.4027 215.249 15.2603 214.553L29.2366 203.21C30.0942 202.514 30.2252 201.254 29.5292 200.397C28.8331 199.539 27.5736 199.408 26.7159 200.104L14.2926 210.187L4.20988 197.763C3.51381 196.906 2.25428 196.775 1.39663 197.471C0.538974 198.167 0.407982 199.426 1.10405 200.284L12.4471 214.26ZM15.9893 213.207C24.5831 130.574 69.1483 71.4852 138.562 37.6044C208.073 3.67661 302.626 -5.01783 411.054 13.6078L411.731 9.66551C302.794 -9.04758 207.318 -0.405947 136.808 34.0098C66.2011 68.4726 20.7528 128.735 12.0107 212.793L15.9893 213.207Z" fill="#D4145A"/>
</svg>
