<svg width="16" height="16" viewBox="0 0 16 16" fill="none" xmlns="http://www.w3.org/2000/svg">
<path d="M15.9238 16L14.7992 11.8913C15.4932 10.6887 15.8578 9.32533 15.8572 7.92733C15.8552 3.55667 12.2985 0 7.92849 0C5.80783 0.000666667 3.81716 0.826667 2.31983 2.32533C0.823161 3.824 -0.000840187 5.816 -0.000173569 7.93467C0.00182629 12.306 3.55849 15.8627 7.92849 15.8627C9.25516 15.862 10.5625 15.5293 11.7205 14.8973L15.9238 16ZM11.5258 13.462C10.4085 14.1253 9.34183 14.5227 7.93116 14.5233C4.29916 14.5233 1.34049 11.5673 1.33849 7.93333C1.33716 4.292 4.28183 1.34 7.92583 1.33867C11.5605 1.33867 14.5172 4.29467 14.5185 7.928C14.5192 9.41133 14.0845 10.522 13.3545 11.684L14.0205 14.116L11.5258 13.462Z" fill="white"/>
<circle cx="5" cy="6" r="1" fill="white"/>
<circle cx="10" cy="6" r="1" fill="white"/>
<path d="M5 10.5C6 12.5 8.5 12.5 10 10.5" stroke="white" stroke-width="0.6" stroke-linecap="round"/>
</svg>
