<svg width="305" height="212" viewBox="0 0 305 212" fill="none" xmlns="http://www.w3.org/2000/svg">
<path d="M229.862 134.794C208.708 134.794 191.498 152.003 191.498 173.157C191.498 194.311 208.708 211.521 229.862 211.521C251.02 211.521 268.226 194.311 268.226 173.157C268.226 152.003 251.016 134.794 229.862 134.794ZM229.862 192.339C219.284 192.339 210.68 183.736 210.68 173.157C210.68 162.579 219.284 153.975 229.862 153.975C240.441 153.975 249.044 162.579 249.044 173.157C249.044 183.736 240.441 192.339 229.862 192.339ZM98.7866 134.794C77.6324 134.794 60.4229 152.003 60.4229 173.157C60.4229 194.311 77.6324 211.521 98.7866 211.521C119.941 211.521 137.15 194.311 137.15 173.157C137.15 152.003 119.941 134.794 98.7866 134.794ZM98.7866 192.339C88.208 192.339 79.6047 183.736 79.6047 173.157C79.6047 162.579 88.208 153.975 98.7866 153.975C109.362 153.975 117.968 162.579 117.968 173.157C117.968 183.736 109.365 192.339 98.7866 192.339ZM255.697 24.9845C254.898 23.3966 253.673 22.0619 252.16 21.1293C250.646 20.1968 248.904 19.7029 247.126 19.7029H196.614V38.8848H241.211L267.327 90.829L284.47 82.2097L255.697 24.9845Z" fill="#D4145A"/>
<path d="M128.518 163.886H201.09V183.068H128.518V163.886ZM70.0133 163.886H36.7653C31.4677 163.886 27.1747 168.18 27.1747 173.477C27.1747 178.775 31.4683 183.068 36.7653 183.068H70.0139C75.3115 183.068 79.6046 178.774 79.6046 173.477C79.6046 168.179 75.3109 163.886 70.0133 163.886ZM302.338 105.254L283.473 80.9566C282.577 79.8014 281.429 78.8666 280.116 78.2238C278.803 77.5809 277.361 77.2471 275.899 77.2479H206.205V10.1116C206.205 4.81401 201.911 0.520996 196.614 0.520996H36.7653C31.4677 0.520996 27.1747 4.81461 27.1747 10.1116C27.1747 15.4087 31.4683 19.7023 36.7653 19.7023H187.023V86.8385C187.023 92.1361 191.316 96.4292 196.613 96.4292H271.202L285.17 114.422V163.885H258.635C253.337 163.885 249.044 168.179 249.044 173.476C249.044 178.773 253.338 183.066 258.635 183.066H294.76C300.058 183.066 304.351 178.773 304.351 173.476V111.136C304.351 109.007 303.642 106.935 302.338 105.254ZM69.3743 115.292H25.2558C19.9582 115.292 15.6652 119.586 15.6652 124.883C15.6652 130.181 19.9588 134.474 25.2558 134.474H69.3737C74.6713 134.474 78.9643 130.18 78.9643 124.883C78.9649 119.586 74.6713 115.292 69.3743 115.292ZM91.4332 77.5677H9.59064C4.29361 77.5677 0 81.8613 0 87.1589C0 92.4565 4.29361 96.7495 9.59064 96.7495H91.4332C96.7309 96.7495 101.024 92.4559 101.024 87.1589C101.024 81.8619 96.7309 77.5677 91.4332 77.5677Z" fill="#D4145A"/>
<path d="M107.098 39.8435H25.2557C19.9581 39.8435 15.665 44.1371 15.665 49.4341C15.665 54.7318 19.9587 59.0248 25.2557 59.0248H107.098C112.396 59.0248 116.689 54.7312 116.689 49.4341C116.69 44.1371 112.396 39.8435 107.098 39.8435Z" fill="#D4145A"/>
</svg>
