<svg width="217" height="215" viewBox="0 0 217 215" fill="none" xmlns="http://www.w3.org/2000/svg">
<path d="M95.7564 98.3936C122.436 98.3936 144.064 76.8152 144.064 50.1968C144.064 23.5785 122.436 2 95.7564 2C69.0767 2 47.4485 23.5785 47.4485 50.1968C47.4485 76.8152 69.0767 98.3936 95.7564 98.3936Z" stroke="#D4145A" stroke-width="4" stroke-miterlimit="10"/>
<path d="M2 213C2.05418 198.175 5.67689 183.582 12.5619 170.452C19.4469 157.323 29.3917 146.045 41.5557 137.571C53.7197 129.097 67.7452 123.676 82.4466 121.766C97.1479 119.857 112.093 121.515 126.018 126.601" stroke="#D4145A" stroke-width="4" stroke-miterlimit="10" stroke-linecap="round"/>
<path d="M152.531 138.039C138.395 138.039 126.934 147.103 126.934 163.594C126.934 180.085 150.825 195.963 171.302 213C191.78 195.963 215.776 180.29 215.776 163.594C215.776 146.902 204.316 138.039 190.179 138.039C182.725 138.039 175.981 143.184 171.306 148.261C166.63 143.219 159.958 138.039 152.534 138.039H152.531Z" stroke="#D4145A" stroke-linecap="round" stroke-linejoin="round"/>
</svg>
