<svg width="166" height="211" viewBox="0 0 166 211" fill="none" xmlns="http://www.w3.org/2000/svg">
<path d="M165.786 20.4528C164.75 17.346 162.677 16.3104 159.569 16.3104C133.665 21.4883 107.761 16.3104 86.0013 0.776687C83.929 -0.258896 81.8567 -0.258896 79.7844 0.776687C58.025 15.2748 32.121 21.4883 6.21696 16.3104H5.1808C2.07232 16.3104 0 18.3816 0 21.4883V104.335C0 134.367 14.5063 163.363 39.3741 180.968L79.7844 209.964C80.8205 211 81.8567 211 82.8929 211C83.929 211 84.9652 211 86.0013 209.964L126.412 180.968C151.279 163.363 165.786 134.367 165.786 104.335V21.4883C165.786 20.4528 165.786 20.4528 165.786 20.4528ZM155.424 104.335C155.424 131.26 141.954 157.15 120.195 172.683L82.8929 199.609L45.5911 172.683C23.8317 157.15 10.3616 131.26 10.3616 104.335V27.7018C35.2295 31.8442 61.1335 25.6307 82.8929 12.1681C104.652 25.6307 130.556 31.8442 155.424 27.7018V104.335Z" fill="#D4145A"/>
<path d="M76.7205 133.759C75.8984 133.764 75.1068 133.448 74.5149 132.88L50.8828 110.027C50.5849 109.738 50.3469 109.394 50.1825 109.014C50.0181 108.634 49.9305 108.225 49.9246 107.811C49.9188 107.397 49.9948 106.986 50.1484 106.602C50.302 106.217 50.5301 105.866 50.8198 105.569C51.1094 105.273 51.4549 105.035 51.8365 104.872C52.2182 104.708 52.6284 104.621 53.0439 104.615C53.4594 104.609 53.8719 104.685 54.258 104.838C54.6441 104.991 54.9962 105.218 55.2941 105.507L76.7205 126.225L126.505 78.1332C127.107 77.5504 127.917 77.2296 128.756 77.2414C129.595 77.2532 130.395 77.5966 130.98 78.196C131.565 78.7954 131.887 79.6018 131.875 80.4378C131.863 81.2737 131.518 82.0708 130.917 82.6536L78.9262 132.88C78.3342 133.448 77.5427 133.764 76.7205 133.759Z" fill="#D4145A"/>
</svg>
