<svg width="106" height="76" viewBox="0 0 106 76" fill="none" xmlns="http://www.w3.org/2000/svg">
<path d="M102.368 12.9028L102.37 12.9088C103.457 16.8794 103.999 23.1241 104.261 28.4882C104.391 31.1469 104.451 33.5499 104.478 35.2884C104.491 36.1573 104.497 36.8593 104.499 37.3431C104.5 37.585 104.5 37.7724 104.5 37.8987L104.5 38.0417L104.5 38.0774L104.5 38.086L104.5 38.0879L104.5 38.0883V38.0959V38.0963V38.0983L104.5 38.1069L104.499 38.1425L104.499 38.2849C104.499 38.4107 104.497 38.5972 104.495 38.8381C104.491 39.3198 104.483 40.0187 104.466 40.8838C104.432 42.6147 104.364 45.0077 104.229 47.6566C103.956 52.9966 103.414 59.2259 102.367 63.2061C101.283 67.2268 98.1089 70.4007 94.0883 71.4848C92.167 71.9896 88.6722 72.3926 84.3869 72.7001C80.14 73.0049 75.2386 73.2088 70.5825 73.3449C65.9288 73.481 61.532 73.5491 58.2979 73.5831C56.6811 73.6002 55.3556 73.6087 54.4347 73.6129C53.9743 73.615 53.6151 73.6161 53.3712 73.6166L53.0936 73.6171L53.0231 73.6172L53.0054 73.6172H53.0011H53.0001C52.9999 73.6172 52.9998 73.6172 52.9998 75.1172C52.9998 73.6172 52.9997 73.6172 52.9995 73.6172H52.9985H52.9941L52.9766 73.6172L52.9062 73.6171L52.6295 73.6166C52.3863 73.6161 52.028 73.615 51.5687 73.6127C50.6501 73.6083 49.3278 73.5995 47.7146 73.5818C44.4876 73.5464 40.0994 73.4756 35.4516 73.3341C30.8014 73.1925 25.9036 72.9805 21.6536 72.6636C17.3622 72.3436 13.8569 71.9244 11.9176 71.3992L11.9154 71.3986C7.892 70.3153 4.71574 67.1396 3.63182 63.1164C2.58604 59.1825 2.04402 52.9552 1.77091 47.6022C1.63548 44.9478 1.56771 42.5466 1.53382 40.8089C1.51688 39.9403 1.50843 39.2384 1.50421 38.7544C1.5021 38.5124 1.50104 38.325 1.50052 38.1985L1.50006 38.0554L1.50001 38.0197L1.5 38.011L1.5 38.009L1.5 38.0086L0 38.0086L1.5 38.0086L1.5 38.0082L1.5 38.0062L1.50001 37.9976L1.50006 37.962L1.50052 37.8196C1.50104 37.6938 1.5021 37.5073 1.50421 37.2664C1.50843 36.7847 1.51688 36.0858 1.53382 35.2207C1.56771 33.4898 1.63547 31.0968 1.7709 28.4479C2.0439 23.1081 2.58571 16.879 3.63237 12.8988C4.71739 8.87458 7.98161 5.61425 11.9149 4.53147C13.837 4.02705 17.33 3.62443 21.6126 3.31707C25.8595 3.01227 30.761 2.80838 35.417 2.67224C40.0708 2.53617 44.4676 2.46809 47.7017 2.43405C49.3184 2.41703 50.6439 2.40852 51.5648 2.40427C52.0253 2.40215 52.3845 2.40108 52.6284 2.40055L52.9059 2.40009L52.9765 2.40003L52.9941 2.40003L52.9985 2.40002L52.9995 2.40002C52.9997 2.40002 52.9998 2.40002 52.9998 0.900024C52.9998 2.40002 52.9999 2.40002 53.0001 2.40002L53.0011 2.40002L53.0054 2.40003L53.023 2.40003L53.0936 2.40009L53.371 2.40057C53.6149 2.40113 53.9741 2.40223 54.4345 2.40444C55.3552 2.40886 56.6806 2.41771 58.2972 2.43541C61.5311 2.47081 65.9275 2.5416 70.5807 2.6831C75.2364 2.82468 80.1369 3.03668 84.3827 3.35359C88.6712 3.67369 92.163 4.09285 94.0781 4.617L94.0841 4.61862C98.1082 5.70203 101.285 8.87868 102.368 12.9028Z" stroke="#D4145A" stroke-width="3"/>
<path d="M43.9346 24.7122L67.0204 38.0085L43.9346 51.3048V24.7122Z" fill="#D4145A" stroke="#D4145A" stroke-width="3"/>
</svg>
