<svg width="110" height="91" viewBox="0 0 110 91" fill="none" xmlns="http://www.w3.org/2000/svg">
<path d="M8.54675 6.57815C14.1238 13.4156 21.0884 18.9916 28.9804 22.9376C36.8724 26.8836 45.512 29.1097 54.3282 29.4689C53.1379 24.616 53.0463 11.431 62.2942 5.93721C66.0536 3.46594 70.4321 2.10161 74.9299 2C77.8649 2.00665 80.7668 2.62013 83.4534 3.80191C86.1399 4.98369 88.5531 6.70823 90.5414 8.86722C95.3599 7.84159 99.9921 6.08133 104.276 3.64813C102.772 8.56135 99.5128 12.7494 95.1195 15.414C99.3121 15.0512 103.422 14.0316 107.297 12.3924C104.38 16.739 100.686 20.5103 96.4014 23.5173C99.6519 52.6801 73.5106 88.939 36.3361 88.939C24.2788 89.0049 12.4235 85.8435 2 79.7827C7.68295 80.4902 13.4502 80.044 18.9567 78.4707C24.4632 76.8974 29.5957 74.2294 34.047 70.6264C29.1221 70.3365 24.3744 68.6851 20.3328 65.8559C16.2912 63.0268 13.1144 59.1311 11.1563 54.6029C15.7344 56.0679 20.0837 56.8004 22.6017 54.6029C17.458 53.2941 12.8708 50.3675 9.51612 46.2545C6.16145 42.1416 4.21675 37.0597 3.9686 31.758C5.48112 33.2368 7.27076 34.4025 9.23483 35.1882C11.1989 35.9738 13.2988 36.3639 15.414 36.3361C10.8073 33.0909 7.55942 28.2605 6.29233 22.7697C5.02524 17.279 5.82795 11.5139 8.54675 6.57815Z" stroke="#D4145A" stroke-width="4" stroke-linecap="round" stroke-linejoin="round"/>
</svg>
