<svg width="24" height="17" viewBox="0 0 24 17" fill="none" xmlns="http://www.w3.org/2000/svg">
<g id="Layer_1-2">
<g id="Group">
<path id="Vector" d="M5.42026 0.225564C4.87222 0.225564 4.45312 0.67152 4.45312 1.1927V3.10547H6.41425V1.1927C6.41425 0.67152 5.9683 0.225564 5.42026 0.225564Z" fill="#D4145A"/>
<path id="Vector_2" d="M10.5784 11.7771C10.7557 11.589 10.847 11.3472 10.847 11.1001C10.847 10.8368 10.7449 10.5789 10.5408 10.3855C10.1485 10.0147 9.52526 10.0309 9.15453 10.4231L6.41432 13.3191L6.41432 5.06625H4.45319L4.45319 13.3406L1.69149 10.4231C1.32076 10.0309 0.697496 10.0094 0.30527 10.3855C-0.0869559 10.7562 -0.103075 11.3795 0.267659 11.7717L4.7111 16.473C4.89915 16.6718 5.15705 16.7793 5.4257 16.7793C5.69435 16.7793 5.95225 16.6718 6.1403 16.473L10.5837 11.7771H10.5784Z" fill="#D4145A"/>
<path id="Vector_3" d="M18.5838 16.7676C19.1319 16.7676 19.551 16.3485 19.551 15.8004V13.8877H17.5898V15.8004C17.5898 16.3485 18.0358 16.7676 18.5838 16.7676Z" fill="#D4145A"/>
<path id="Vector_4" d="M17.8639 0.531693L13.4205 5.22766C13.0498 5.61988 13.0659 6.23777 13.4581 6.61388C13.8503 6.98461 14.4736 6.96849 14.8443 6.57627L17.5845 3.68025V11.9277H19.5457V3.65875L22.3074 6.57627C22.6781 6.96849 23.3014 6.98999 23.6936 6.61388C23.8978 6.42045 23.9998 6.16255 23.9998 5.89928C23.9998 5.65749 23.9085 5.41571 23.7312 5.22228L19.2878 0.526319C19.0997 0.327519 18.8418 0.22006 18.5732 0.22006C18.3045 0.22006 18.0466 0.327519 17.8586 0.526319L17.8639 0.531693Z" fill="#D4145A"/>
</g>
</g>
</svg>
