<svg width="195" height="139" viewBox="0 0 195 139" fill="none" xmlns="http://www.w3.org/2000/svg">
<path d="M69.6429 48.65H55.816C62.2837 29.958 67.8064 21.0064 86.183 13.3642C89.2501 12.0881 90.9849 8.83067 90.3317 5.57946C89.6791 2.33451 86.8224 0 83.5032 0H83.4893C45.1516 0.06811 23.1298 15.4068 7.51446 52.8985C2.53013 64.6746 0 77.2777 0 90.35C0 110.454 6.09375 121.401 15.3841 135.81C16.6628 137.798 18.8732 139 21.2397 139H69.6429C81.1639 139 90.5357 129.647 90.5357 118.15V69.5C90.5357 58.0026 81.1639 48.65 69.6429 48.65ZM174.107 48.65H160.28C166.748 29.958 172.271 21.0064 190.647 13.3642C193.714 12.0881 195.449 8.83067 194.796 5.57946C194.143 2.33451 191.287 0 187.967 0H187.954C149.616 0.06811 127.594 15.4068 111.979 52.8985C106.994 64.6746 104.464 77.2777 104.464 90.35C104.464 110.454 110.558 121.401 119.848 135.81C121.127 137.798 123.338 139 125.704 139H174.107C185.628 139 195 129.647 195 118.15V69.5C195 58.0026 185.628 48.65 174.107 48.65Z" fill="#D4145A"/>
</svg>
