<svg width="98" height="98" viewBox="0 0 98 98" fill="none" xmlns="http://www.w3.org/2000/svg">
<path d="M75.166 16.954C74.003 16.954 72.8662 17.2989 71.8992 17.945C70.9323 18.5911 70.1786 19.5094 69.7336 20.5838C69.2885 21.6583 69.1721 22.8405 69.399 23.9811C69.6259 25.1217 70.1859 26.1695 71.0082 26.9918C71.8306 27.8141 72.8783 28.3741 74.0189 28.601C75.1595 28.8279 76.3418 28.7115 77.4162 28.2664C78.4906 27.8214 79.4089 27.0677 80.055 26.1008C80.7011 25.1338 81.046 23.997 81.046 22.834C81.046 21.2745 80.4265 19.7789 79.3238 18.6762C78.2211 17.5735 76.7255 16.954 75.166 16.954ZM97.706 28.812C97.6107 24.7465 96.8493 20.7241 95.452 16.905C94.2061 13.6373 92.2669 10.6785 89.768 8.232C87.3416 5.72039 84.3758 3.79346 81.095 2.597C77.286 1.15719 73.2592 0.378329 69.188 0.294C63.994 -2.68221e-07 62.328 0 49 0C35.672 0 34.006 -2.68221e-07 28.812 0.294C24.7408 0.378329 20.714 1.15719 16.905 2.597C13.6302 3.80558 10.667 5.73085 8.232 8.232C5.72039 10.6584 3.79346 13.6242 2.597 16.905C1.15719 20.714 0.378329 24.7408 0.294 28.812C-2.68221e-07 34.006 0 35.672 0 49C0 62.328 -2.68221e-07 63.994 0.294 69.188C0.378329 73.2592 1.15719 77.286 2.597 81.095C3.79346 84.3758 5.72039 87.3416 8.232 89.768C10.667 92.2691 13.6302 94.1944 16.905 95.403C20.714 96.8428 24.7408 97.6217 28.812 97.706C34.006 98 35.672 98 49 98C62.328 98 63.994 98 69.188 97.706C73.2592 97.6217 77.286 96.8428 81.095 95.403C84.3758 94.2065 87.3416 92.2796 89.768 89.768C92.278 87.3306 94.2188 84.3692 95.452 81.095C96.8493 77.2759 97.6107 73.2535 97.706 69.188C97.706 63.994 98 62.328 98 49C98 35.672 98 34.006 97.706 28.812ZM88.886 68.6C88.8503 71.7104 88.287 74.7921 87.22 77.714C86.4376 79.8465 85.181 81.7733 83.545 83.349C81.9557 84.9685 80.0328 86.2225 77.91 87.024C74.9881 88.091 71.9064 88.6543 68.796 88.69C63.896 88.935 62.083 88.984 49.196 88.984C36.309 88.984 34.496 88.984 29.596 88.69C26.3664 88.7505 23.1505 88.2532 20.09 87.22C18.0603 86.3776 16.2256 85.1267 14.7 83.545C13.0736 81.9709 11.8327 80.0424 11.074 77.91C9.8777 74.9462 9.21417 71.7945 9.114 68.6C9.114 63.7 8.82 61.887 8.82 49C8.82 36.113 8.82 34.3 9.114 29.4C9.13596 26.2202 9.71646 23.0689 10.829 20.09C11.6916 18.0218 13.0157 16.1781 14.7 14.7C16.1887 13.0152 18.0285 11.6772 20.09 10.78C23.0768 9.70221 26.2248 9.13889 29.4 9.114C34.3 9.114 36.113 8.82 49 8.82C61.887 8.82 63.7 8.82 68.6 9.114C71.7104 9.14967 74.7921 9.71301 77.714 10.78C79.9407 11.6064 81.9392 12.9499 83.545 14.7C85.1507 16.2052 86.4054 18.0454 87.22 20.09C88.309 23.0738 88.8727 26.2237 88.886 29.4C89.131 34.3 89.18 36.113 89.18 49C89.18 61.887 89.131 63.7 88.886 68.6ZM49 23.863C44.0305 23.8727 39.1753 25.3552 35.048 28.1231C30.9207 30.8911 27.7065 34.8204 25.8114 39.4144C23.9164 44.0084 23.4255 49.0611 24.401 53.934C25.3764 58.8068 27.7744 63.2812 31.2918 66.7918C34.8092 70.3024 39.2883 72.6916 44.163 73.6575C49.0378 74.6235 54.0895 74.1228 58.6798 72.2188C63.2701 70.3148 67.1931 67.093 69.953 62.9603C72.713 58.8276 74.186 53.9695 74.186 49C74.1925 45.693 73.5451 42.4174 72.2811 39.3615C71.0171 36.3056 69.1613 33.5298 66.8207 31.1936C64.48 28.8575 61.7006 27.0072 58.6422 25.7492C55.5839 24.4911 52.307 23.8501 49 23.863ZM49 65.317C45.7728 65.317 42.6181 64.36 39.9348 62.5671C37.2514 60.7742 35.1601 58.2258 33.9251 55.2442C32.6901 52.2627 32.3669 48.9819 32.9965 45.8167C33.6261 42.6515 35.1802 39.7441 37.4621 37.4621C39.7441 35.1802 42.6515 33.6261 45.8167 32.9965C48.9819 32.3669 52.2627 32.6901 55.2442 33.9251C58.2258 35.1601 60.7742 37.2514 62.5671 39.9348C64.36 42.6181 65.317 45.7728 65.317 49C65.317 51.1428 64.895 53.2646 64.0749 55.2442C63.2549 57.2239 62.053 59.0227 60.5379 60.5379C59.0227 62.053 57.2239 63.2549 55.2442 64.0749C53.2646 64.895 51.1428 65.317 49 65.317Z" fill="#D4145A"/>
</svg>
