<svg width="210" height="211" viewBox="0 0 210 211" fill="none" xmlns="http://www.w3.org/2000/svg">
<path d="M207.586 127.441C205.594 124.117 197.416 114.248 175.79 126.842L137.518 149.134C135.548 150.281 133.504 151.086 131.362 151.553C132.167 150.307 132.794 148.886 133.218 147.305C135.161 140.053 130.849 132.483 123.402 130.069C123.261 130.024 123.117 129.987 122.971 129.961C111.965 127.976 101.105 124.049 92.3801 120.895C89.3491 119.799 86.4858 118.764 84.0527 117.975C74.2842 114.806 65.4541 118.733 58.1038 122.992L29.5491 139.536L27.4416 135.812C26.2696 133.741 24.3558 132.249 22.0525 131.61C19.7493 130.972 17.3401 131.266 15.2693 132.438L4.53072 138.515C0.244843 140.941 -1.26881 146.401 1.15683 150.687L32.7264 206.469C33.8985 208.54 35.8123 210.032 38.1159 210.67C38.9125 210.891 39.7215 211 40.5247 211C42.0445 211 43.5442 210.609 44.8988 209.842L55.6369 203.765C57.7078 202.593 59.2 200.679 59.8383 198.376C60.4771 196.072 60.1829 193.663 59.0104 191.593L55.0761 184.641L61.6875 180.824L110.746 193.969C113.505 194.708 116.214 195.078 118.864 195.078C124.147 195.077 129.198 193.61 133.951 190.684L203.405 147.917C209.693 144.046 211.686 134.286 207.586 127.441ZM53.4837 196.615C53.4036 196.911 53.2656 197.188 53.0777 197.431C52.8897 197.673 52.6556 197.876 52.3887 198.027L41.6506 204.105C41.3835 204.256 41.0891 204.352 40.7845 204.388C40.4799 204.425 40.1711 204.4 39.876 204.316C39.5799 204.237 39.3027 204.099 39.0602 203.911C38.8178 203.723 38.6151 203.489 38.4638 203.222L6.89455 147.44C6.58988 146.9 6.5118 146.261 6.67744 145.664C6.84308 145.066 7.23892 144.559 7.7781 144.253L18.5167 138.176C18.8632 137.98 19.2546 137.876 19.6529 137.876C19.8655 137.876 20.0794 137.906 20.2912 137.964C20.5873 138.044 20.8645 138.182 21.1068 138.37C21.3492 138.558 21.5518 138.792 21.7031 139.059L53.2727 194.841C53.4235 195.108 53.5198 195.402 53.556 195.707C53.5922 196.011 53.5676 196.32 53.4837 196.615ZM199.949 142.303L130.495 185.07C124.962 188.475 118.892 189.327 112.452 187.601L62.0748 174.102C61.6567 173.99 61.2205 173.961 60.7912 174.017C60.362 174.074 59.9481 174.215 59.5734 174.432L51.8283 178.903L32.7961 145.275L61.4089 128.697C67.8076 124.989 74.7347 121.884 82.0178 124.248C84.347 125.003 87.0306 125.973 90.1374 127.096C99.0352 130.313 110.093 134.31 121.563 136.407C125.617 137.819 127.884 141.736 126.848 145.599C125.588 150.302 121.869 151.191 118.662 150.994C112.387 149.772 106.746 148.172 100.834 146.495C98.2922 145.775 95.6638 145.029 92.8998 144.289C92.0552 144.062 91.1553 144.181 90.3981 144.618C89.6408 145.055 89.0883 145.775 88.862 146.62C88.6357 147.464 88.7542 148.364 89.1914 149.122C89.6286 149.879 90.3487 150.431 91.1933 150.658C93.9107 151.386 96.5156 152.125 99.0344 152.839C104.66 154.434 110.045 155.962 116.008 157.188C116.311 157.324 116.632 157.414 116.961 157.454C117.236 157.488 117.508 157.516 117.778 157.539C119.047 157.782 120.319 158.006 121.595 158.21C128.689 159.344 134.983 158.239 140.836 154.832L179.108 132.54C190.177 126.093 198.709 125.454 201.929 130.83C204.152 134.54 203.152 140.33 199.949 142.303ZM21.0499 147.921C21.1227 148.419 21.0966 148.927 20.9732 149.415C20.8498 149.903 20.6315 150.362 20.3307 150.766C20.0299 151.169 19.6525 151.51 19.2201 151.768C18.7877 152.026 18.3087 152.196 17.8106 152.269C17.3124 152.342 16.8047 152.316 16.3166 152.192C15.8285 152.069 15.3695 151.85 14.9657 151.55C14.562 151.249 14.2214 150.871 13.9635 150.439C13.7056 150.007 13.5354 149.528 13.4627 149.029C13.3157 148.023 13.5744 147 14.1818 146.185C14.7893 145.369 15.6959 144.829 16.702 144.682C17.7081 144.535 18.7315 144.793 19.5468 145.401C20.3622 146.008 20.9029 146.915 21.0499 147.921ZM89.6376 63.288C89.4402 62.4446 89.5826 61.5574 90.0341 60.8181C90.4856 60.0789 91.2099 59.547 92.0504 59.3374C92.8908 59.1279 93.78 59.2575 94.5257 59.6982C95.2714 60.1389 95.8138 60.8554 96.0355 61.6927C97.1436 66.1398 101.701 67.6139 105.277 67.5327C108.387 67.4585 111.287 66.3813 112.665 64.7881C113.432 63.9016 113.716 62.8817 113.557 61.5786C113.295 59.4179 112.013 56.7772 104.367 55.5215C93.5352 53.7433 91.0074 48.135 90.7943 43.7432C90.4989 37.6659 94.718 32.5805 101.294 31.0887C101.385 31.0681 101.477 31.0508 101.569 31.0318V28.6742C101.569 27.7998 101.917 26.9612 102.535 26.343C103.153 25.7247 103.992 25.3773 104.866 25.3773C105.74 25.3773 106.579 25.7247 107.197 26.343C107.816 26.9612 108.163 27.7998 108.163 28.6742V31.0017C112.548 31.8643 116.773 34.5603 118.946 39.7359C119.284 40.542 119.288 41.4496 118.958 42.2589C118.627 43.0683 117.989 43.7132 117.183 44.0518C116.376 44.3903 115.469 44.3947 114.659 44.064C113.85 43.7333 113.205 43.0946 112.866 42.2884C110.996 37.834 106.442 36.6822 102.752 37.5192C100.047 38.1328 97.2145 40.0062 97.3802 43.4234C97.4375 44.6003 97.5891 47.7266 105.435 49.0152C114.398 50.4868 119.333 54.4463 120.103 60.7841C120.485 63.9301 119.637 66.8061 117.652 69.1015C115.519 71.5688 112.087 73.2716 108.163 73.8815V76.1325C108.163 77.0068 107.816 77.8454 107.198 78.4637C106.579 79.0819 105.741 79.4293 104.866 79.4293C103.992 79.4293 103.154 79.0819 102.535 78.4637C101.917 77.8454 101.57 77.0068 101.57 76.1325V73.83C95.6073 72.7474 91.0148 68.8114 89.6376 63.288ZM104.866 93.1985C127.36 93.1985 145.661 74.8978 145.661 52.4035C145.661 29.9093 127.36 11.6086 104.866 11.6086C82.3718 11.6086 64.0711 29.9093 64.0711 52.4035C64.0711 74.8978 82.3718 93.1985 104.866 93.1985ZM104.866 18.2022C123.725 18.2022 139.067 33.5448 139.067 52.4035C139.067 71.2622 123.725 86.6048 104.866 86.6048C86.0073 86.6048 70.6647 71.2622 70.6647 52.4035C70.6647 33.5448 86.0073 18.2022 104.866 18.2022ZM104.866 104.807C133.762 104.807 157.27 81.2994 157.27 52.4035C157.27 23.508 133.762 0 104.866 0C75.9706 0 52.4625 23.508 52.4625 52.4035C52.4625 81.299 75.9706 104.807 104.866 104.807ZM104.866 6.59366C130.126 6.59366 150.676 27.144 150.676 52.4035C150.676 77.6634 130.126 98.2138 104.866 98.2138C79.6061 98.2138 59.0562 77.6634 59.0562 52.4035C59.0562 27.144 79.6061 6.59366 104.866 6.59366Z" fill="#D4145A"/>
</svg>
