<svg width="57" height="98" viewBox="0 0 57 98" fill="none" xmlns="http://www.w3.org/2000/svg">
<path d="M54.9779 0.725318C50.284 0.227153 45.5662 -0.0149518 40.8461 0.000714113C25.1965 0.000714113 15.4723 9.9945 15.4723 26.0865V37.0102H2.32653C1.04228 37.0094 0.000568662 38.053 5.22795e-07 39.341V57.3128C-0.000851453 58.6008 1.03973 59.6453 2.32398 59.6461H15.4723V95.6667C15.4715 96.9547 16.5121 97.9991 17.7963 98H36.3066C37.5909 98.0009 38.6323 96.9572 38.6331 95.6692V59.6461H51.7383C52.9073 59.6458 53.895 58.7762 54.0467 57.6136L56.3596 39.6443C56.5257 38.3671 55.628 37.1965 54.3543 37.0299C54.2537 37.0168 54.1526 37.0102 54.0512 37.0102H38.6331V27.8683C38.6331 23.343 39.5419 21.4517 45.1856 21.4517L54.6735 21.4472C55.9577 21.4477 56.9991 20.4044 57 19.1164V3.04041C57.0003 1.86919 56.1355 0.879126 54.9779 0.725318ZM52.3469 16.7805L45.1856 16.7851C35.1433 16.7851 33.9801 23.1106 33.9801 27.8683V39.3438C33.9795 40.6315 35.0198 41.6763 36.304 41.6768H51.4063L49.6932 54.9795H36.3066C35.0224 54.9789 33.9809 56.0222 33.9801 57.3102V93.3334H20.1254V57.3128C20.1263 56.0248 19.0857 54.9803 17.8017 54.9795H4.65306V41.6768H17.7989C19.0831 41.6777 20.1245 40.6341 20.1254 39.3461V26.0865C20.1254 12.6744 27.8726 4.66735 40.8461 4.66735C45.54 4.66735 49.7796 4.92255 52.3469 5.14586V16.7805Z" fill="#D4145A"/>
</svg>
